<?xml version="1.0" encoding="UTF-8"?> <svg xmlns="http://www.w3.org/2000/svg" width="254" height="81" viewBox="0 0 254 81" fill="none"><path d="M12.4535 71.6913C14.4796 71.6913 16.2011 71.4156 17.6102 70.8565V72.8017C16.2239 73.3837 14.5787 73.7283 12.6668 73.8432H11.2805C7.61683 73.7513 4.81382 72.4341 2.89436 69.8916C0.967295 67.3568 0.00756836 64.1328 0.00756836 60.2425C0.00756836 57.1104 0.898743 54.4607 2.67348 52.2782C4.42536 50.0957 6.93131 48.901 10.1761 48.6943C11.1206 48.6253 12.0346 48.6253 12.9106 48.6943C14.3882 48.7862 15.8735 49.1078 17.374 49.6668V55.2342H17.3055C16.4296 52.2629 14.4492 50.7849 11.3567 50.7849C9.30016 50.7849 7.693 51.612 6.52762 53.2508C5.36223 54.8973 4.78335 57.2636 4.78335 60.3421C4.78335 64.0486 5.46125 66.8591 6.82467 68.7736C8.18809 70.6881 10.0618 71.653 12.4612 71.676L12.4535 71.6913Z" fill="white"></path><path d="M18.7451 55.6937V55.6631H25.7679L29.9572 66.7902C30.2771 67.4641 30.4903 68.0537 30.5817 68.5668L34.6644 55.6631H37.7111L29.0279 80.0079H26.0497L28.4719 73.8891L21.6928 57.8226C21.1825 56.6203 20.2076 55.9081 18.7527 55.7014L18.7451 55.6937Z" fill="white"></path><path d="M39.501 55.6942V55.6635H46.0744V57.2258C47.6663 55.8779 49.3268 55.2347 51.0558 55.2806C53.1048 55.2806 54.7195 55.9622 55.8773 57.333C57.0427 58.7037 57.6216 60.7331 57.6216 63.4211C57.6216 66.4843 56.6847 68.9195 54.8186 70.7268C52.9753 72.5111 50.4846 73.4071 47.3464 73.4071H46.0668V80.016H41.7099V60.6412C41.7099 59.1096 41.55 57.9992 41.2224 57.3023C40.9025 56.6055 40.3236 56.0771 39.4934 55.7018L39.501 55.6942ZM49.5629 57.6087C48.2452 57.6087 47.0874 58.5046 46.0668 60.289V71.1021C46.4095 71.2629 46.9656 71.3471 47.7273 71.3471C49.2049 71.3471 50.4617 70.7421 51.4976 69.5398C52.5564 68.3375 53.0895 66.4307 53.0895 63.8346C53.0895 59.684 51.9165 57.6087 49.5629 57.6087Z" fill="white"></path><path d="M70.3571 58.2668C68.7424 58.2668 67.4704 58.9407 66.5487 60.2808V73.3913H62.1919V60.5948C62.1919 59.0632 62.0395 57.9528 61.7272 57.2559C61.4149 56.559 60.8437 56.0383 60.0134 55.6937V55.6631H66.5487V57.4014C68.1178 55.9847 69.7783 55.2802 71.5301 55.2802C72.566 55.2802 73.2973 55.372 73.7086 55.5558L73.9523 55.6631V61.3683H73.9218C73.3658 59.3083 72.1776 58.2744 70.3571 58.2744V58.2668Z" fill="white"></path><path d="M87.0304 71.6223C88.5538 71.6223 89.8791 71.4232 91.0064 71.0326V73.1156C89.4145 73.5828 87.7007 73.8125 85.8498 73.8125C83.0163 73.8125 80.7388 72.9395 79.0327 71.2011C77.3493 69.4398 76.5115 67.1883 76.5115 64.4544C76.5115 61.3682 77.296 59.0785 78.8651 57.5699C80.457 56.0383 82.5212 55.2725 85.0576 55.2725C87.594 55.2725 89.3764 56.0536 90.6789 57.6235C91.9814 59.1857 92.6364 61.4908 92.6364 64.5233H81.0131C81.0359 66.8667 81.5995 68.6357 82.7116 69.8303C83.8161 71.025 85.2556 71.6223 87.038 71.6223H87.0304ZM84.7453 57.432C83.6409 57.432 82.7573 57.8685 82.1023 58.7339C81.4472 59.5992 81.0892 60.8705 81.0511 62.5399H88.1805C88.1805 59.1321 87.038 57.4244 84.7529 57.4244L84.7453 57.432Z" fill="white"></path><path d="M105.882 69.3632C105.882 68.6434 105.585 68.0537 104.983 67.5866C104.382 67.1194 103.262 66.6217 101.624 66.0933C99.781 65.4883 98.4404 64.7301 97.6102 63.8188C96.78 62.8999 96.3687 61.7512 96.3687 60.3574C96.3687 58.7799 96.978 57.5393 98.2043 56.6356C99.423 55.732 101.053 55.2802 103.079 55.2802C104.397 55.2802 105.836 55.4103 107.406 55.6631L108.198 55.8009V61.33H108.16C107.626 58.688 106.004 57.3631 103.285 57.3631C102.295 57.3631 101.495 57.5546 100.901 57.9375C100.299 58.3204 100.002 58.8105 100.002 59.4155C100.002 60.0205 100.223 60.5029 100.657 60.8782C101.144 61.2917 102.089 61.7282 103.49 62.1647C106.027 62.9765 107.725 63.8571 108.579 64.8067C109.477 65.7563 109.927 66.928 109.927 68.3217C109.927 69.8304 109.317 71.1246 108.091 72.2197C106.895 73.2841 104.9 73.8202 102.104 73.8202C100.032 73.8202 98.2272 73.3684 96.7114 72.4647V70.0984C98.3262 71.2088 100.093 71.7678 102.005 71.7678C103.201 71.7678 104.153 71.5611 104.839 71.1399C105.524 70.7187 105.875 70.129 105.875 69.3632H105.882Z" fill="white"></path><path d="M122.555 69.3632C122.555 68.6434 122.258 68.0537 121.657 67.5866C121.055 67.1194 119.935 66.6217 118.298 66.0933C116.454 65.4883 115.114 64.7301 114.284 63.8188C113.453 62.8999 113.042 61.7512 113.042 60.3574C113.042 58.7799 113.651 57.5393 114.878 56.6356C116.096 55.732 117.726 55.2802 119.752 55.2802C121.07 55.2802 122.51 55.4103 124.079 55.6631L124.871 55.8009V61.33H124.833C124.3 58.688 122.677 57.3631 119.958 57.3631C118.968 57.3631 118.168 57.5546 117.574 57.9375C116.972 58.3204 116.675 58.8105 116.675 59.4155C116.675 60.0205 116.896 60.5029 117.33 60.8782C117.818 61.2917 118.762 61.7282 120.164 62.1647C122.7 62.9765 124.399 63.8571 125.252 64.8067C126.151 65.7563 126.6 66.928 126.6 68.3217C126.6 69.8304 125.991 71.1246 124.764 72.2197C123.569 73.2841 121.573 73.8202 118.777 73.8202C116.706 73.8202 114.901 73.3684 113.385 72.4647V70.0984C115 71.2088 116.767 71.7678 118.678 71.7678C119.874 71.7678 120.826 71.5611 121.512 71.1399C122.197 70.7187 122.548 70.129 122.548 69.3632H122.555Z" fill="white"></path><path d="M191.945 49.0466L199.242 67.6173H199.28L202.289 49.0466H205.191L200.834 73.3914H197.376L190.285 55.6555H190.247L183.811 73.3914H180.177L176.064 53.1819C175.79 51.7192 175.196 50.716 174.297 50.157C173.741 49.7665 172.995 49.4065 172.05 49.0772V49.0389H179.766L183.331 67.6096H183.369L189.942 49.0389H191.945V49.0466Z" fill="#CCCCCC"></path><path d="M218.132 71.6223C219.656 71.6223 220.981 71.4232 222.108 71.0326V73.1156C220.516 73.5828 218.802 73.8125 216.952 73.8125C214.118 73.8125 211.841 72.9395 210.134 71.2011C208.451 69.4398 207.613 67.1883 207.613 64.4544C207.613 61.3682 208.398 59.0785 209.967 57.5699C211.559 56.0383 213.623 55.2725 216.159 55.2725C218.696 55.2725 220.478 56.0536 221.781 57.6235C223.083 59.1857 223.738 61.4908 223.738 64.5233H212.115C212.138 66.8667 212.701 68.6357 213.813 69.8303C214.918 71.025 216.357 71.6223 218.14 71.6223H218.132ZM215.847 57.432C214.743 57.432 213.859 57.8685 213.204 58.7339C212.549 59.5992 212.191 60.8705 212.153 62.5399H219.282C219.282 59.1321 218.14 57.4244 215.855 57.4244L215.847 57.432Z" fill="#CCCCCC"></path><path d="M236.291 69.3632C236.291 68.6434 235.994 68.0537 235.392 67.5866C234.79 67.1194 233.671 66.6217 232.033 66.0933C230.19 65.4883 228.849 64.7301 228.019 63.8188C227.189 62.8999 226.777 61.7512 226.777 60.3574C226.777 58.7799 227.387 57.5393 228.613 56.6356C229.832 55.732 231.462 55.2802 233.488 55.2802C234.806 55.2802 236.245 55.4103 237.814 55.6631L238.606 55.8009V61.33H238.568C238.035 58.688 236.413 57.3631 233.693 57.3631C232.703 57.3631 231.903 57.5546 231.309 57.9375C230.708 58.3204 230.411 58.8105 230.411 59.4155C230.411 60.0205 230.631 60.5029 231.066 60.8782C231.553 61.2917 232.498 61.7282 233.899 62.1647C236.436 62.9765 238.134 63.8571 238.987 64.8067C239.886 65.7563 240.335 66.928 240.335 68.3217C240.335 69.8304 239.726 71.1246 238.5 72.2197C237.304 73.2841 235.308 73.8202 232.513 73.8202C230.441 73.8202 228.636 73.3684 227.12 72.4647V70.0984C228.735 71.2088 230.502 71.7678 232.414 71.7678C233.61 71.7678 234.562 71.5611 235.247 71.1399C235.933 70.7187 236.283 70.129 236.283 69.3632H236.291Z" fill="#CCCCCC"></path><path d="M249.78 50.4092V55.6626H253.97V57.8528H249.78V67.2415C249.78 70.0673 250.793 71.484 252.827 71.484H254V73.3985H252.34C249.94 73.3985 248.188 72.8395 247.084 71.7138C245.98 70.588 245.423 68.888 245.423 66.6212V57.8604H242.796V55.6702H245.423V51.7034L249.78 50.4168V50.4092Z" fill="#CCCCCC"></path><path d="M193.065 28.5765C192.608 28.0099 190.536 28.1171 189.325 27.918C188.114 27.7112 187.756 26.8382 187.756 26.8382C187.131 25.7201 179.781 26.1183 178.684 25.9652C177.587 25.812 177.519 24.9543 177.519 24.9543C180.154 24.1579 186.4 23.6065 186.4 23.6065C186.4 23.6065 186.888 23.0015 186.499 22.3506C186.111 21.6997 185.037 22.2664 185.037 22.2664C185.037 22.2664 184.61 21.4776 183.3 21.5848C181.99 21.692 170.268 22.2051 170.268 22.2051L171.166 21.3704C172.309 20.7118 176.041 20.7118 177.427 20.5356C178.814 20.3595 180.847 20.191 181.228 19.8005C181.617 19.4176 180.535 18.7666 180.048 18.4297C179.56 18.0851 177.443 18.0544 177.443 18.0544C176.133 18.1617 174.594 17.8017 174.594 17.8017C176.727 17.2427 182.378 17.2504 184.534 17.4188C186.69 17.5873 184.968 16.3161 184.968 16.3161C183.955 15.4967 180.558 15.3435 180.558 15.3435L180.23 14.2408C179.454 13.8808 178.326 13.9498 178.326 13.9498C177.397 13.3984 171.677 13.4826 171.677 13.4826C170.077 13.5745 170.389 14.3097 170.389 14.3097C168.539 14.5241 165.164 14.1335 162.849 14.1795C160.533 14.2254 160.617 15.7494 160.617 15.7494C161.508 16.1629 165.705 15.9408 165.705 15.9408C165.705 15.9408 164.372 16.2701 163.824 16.3773C163.283 16.4846 163.016 17.1891 163.016 17.1891L167.427 17.2121C167.427 17.2121 166.726 18.0698 164.989 18.3378C163.245 18.5982 161.455 18.3608 160.091 17.9702C158.728 17.5796 155.582 18.2536 155.582 18.2536L153.876 17.3499C152.627 17.0053 144.66 17.595 142.908 17.4954C141.156 17.3959 142.9 15.244 143.989 15.0372C145.079 14.8304 145.673 16.1706 146.48 16.3008C147.287 16.4386 151.728 16.2318 153.465 15.9715C155.201 15.7111 154.638 15.0908 154.767 14.5624C154.897 14.0263 157.357 13.8043 157.357 13.8043C157.517 12.87 155.468 12.7551 154.775 12.6709C154.463 12.1118 153.709 11.8668 153.038 11.7672C157.784 11.5145 161.752 11.2848 161.752 11.2848C161.752 11.2848 167.906 10.9708 168.394 9.76848C168.394 9.76848 166.962 9.018 163.405 9.018C163.405 9.018 165.606 8.03777 160.571 8.22157L157.89 8.33644C156.55 7.03457 153.015 7.57829 153.015 7.57829C153.015 7.57829 153.038 6.49086 149.618 6.8661C148.11 7.02692 147.539 6.18454 147.539 6.18454C144.599 6.40662 139.808 6.70528 139.808 6.70528C139.145 6.49086 139.404 5.74037 140.425 5.50297C145.673 5.23494 153.053 4.54572 153.053 4.54572C153.053 4.54572 153.442 3.32044 151.979 2.87628C150.517 2.43977 147.425 2.88394 147.425 2.88394C144.614 1.12259 141.91 2.21769 141.91 2.21769L140.067 1.13025C138.741 0.517612 133.669 1.93434 133.669 1.93434C132.671 2.4168 132.701 3.78758 132.701 3.78758C129.228 4.22409 124.612 4.60699 124.612 4.60699C123.172 5.12007 124.909 6.60573 124.909 6.60573C124.254 6.67465 122.274 6.94268 121.238 7.14179C120.209 7.3409 122.677 8.17562 122.677 8.17562C122.883 8.86484 125.465 8.85718 125.465 8.85718C125.313 9.61532 126.669 10.0059 126.669 10.0059C127.324 9.95228 130.652 9.79146 133.135 9.75317C135.611 9.71488 134.933 11.6906 134.933 11.6906L128.786 12.0199C127.369 12.0735 127.369 10.81 127.369 10.81C127.369 10.81 123.721 10.9631 121.718 10.9861C119.714 11.0091 119.12 11.974 117.589 11.974C116.058 11.974 116.348 12.9389 116.348 12.9389L111.336 13.4367C109.371 13.5975 108.723 14.9912 108.723 14.9912L106.659 15.4584C105.501 15.757 107.147 16.7449 107.147 16.7449C107.147 16.7449 111.991 16.2318 114.291 16.2242C116.591 16.2242 114.87 17.2044 114.87 17.2044L109.378 18.131C108.571 18.9428 110.094 19.8847 110.094 19.8847L108.533 20.1144C106.971 20.3442 107.482 21.4087 107.482 21.4087L111.656 20.9645C111.305 21.3933 112.905 22.251 112.905 22.251C113.118 21.9907 120.865 21.6614 122.83 21.5005C124.795 21.3397 124.665 22.8177 124.665 22.8177C124.665 22.8177 121.253 23.2542 119.585 23.4304C117.917 23.6065 118.107 22.9862 117.483 22.8177C116.858 22.6493 114.284 22.9939 112.471 23.3461C110.658 23.6984 110.909 24.5178 110.909 24.5178C109.668 24.5408 107.139 25.0232 106.994 25.1994C106.659 25.9881 107.939 27.0526 107.939 27.0526C107.939 27.0526 110.209 27.267 113.293 27.0373C116.378 26.8075 115.769 27.9409 115.769 27.9409C112.821 28.0022 103.155 28.9901 103.155 28.9901C102.028 30.0086 103.079 31.9154 103.079 31.9154L101.16 32.2141C101.16 32.2141 101.16 33.1637 101.464 33.5389C101.769 33.9142 104.724 33.8606 104.724 33.8606C104.245 34.4502 104.671 35.0859 105.06 35.4917C108.221 35.3539 111.343 35.2237 114.253 34.9633C119.052 33.6998 123.873 33.0488 128.718 32.7425C129.091 33.0641 129.136 33.4394 129.136 33.4394C125.557 34.5192 116.995 35.4841 116.995 35.4841C116.995 35.4841 116.348 36.2192 116.896 36.9774C117.368 37.6207 118.488 37.1841 118.808 37.0463C118.922 37.1765 119.105 37.3067 119.394 37.4139C119.768 37.6283 120.377 37.8274 121.306 37.7279C123.096 37.5364 139.153 36.3418 139.153 36.3418L137.949 37.3679C136.403 38.2027 131.292 38.3941 129.388 38.6775C127.491 38.9608 124.711 39.2595 124.201 39.7343C123.683 40.2091 125.183 40.9213 125.861 41.2965C126.539 41.6794 129.441 41.6028 129.441 41.6028C130.287 41.5109 131.201 41.5416 131.939 41.6028C132.031 41.7177 132.206 41.8326 132.511 41.9474C131.14 42.2001 129.22 42.3916 127.232 42.5218L125.876 42.583C125.876 42.583 125.876 42.5907 125.869 42.606C123.439 42.7285 121.101 42.7668 119.745 42.7285C116.782 42.6367 119.189 44.0534 119.189 44.0534C120.606 44.98 125.267 44.98 125.267 44.98L125.755 46.2665C126.836 46.6494 128.375 46.5116 128.375 46.5116C129.35 46.9634 134.011 46.8562 136.273 46.7796L139.602 48.227C140.036 48.4108 140.524 48.5869 141.026 48.7707C142.146 49.1842 143.304 49.6131 143.951 50.0726C145.056 50.869 146.617 52.1019 147.402 53.6335C147.752 54.3075 147.577 54.9431 147.242 55.9922C147.044 56.6125 146.823 57.3247 146.754 58.1288C146.602 59.9591 146.731 61.6821 146.846 63.3516C147.006 65.5954 147.15 67.7396 146.617 69.9298C146.602 69.9604 146.579 69.9757 146.571 70.0064C146 70.4735 142.565 71.0938 140.486 71.4614C136.875 72.1123 135.931 72.3267 135.657 72.7632L135.474 73.1002L135.603 73.3989C135.626 73.4601 135.657 73.5137 135.702 73.5673H145.071C146.099 73.5367 147.051 73.529 147.798 73.5673H158.743C159.284 73.5673 159.84 73.5673 160.404 73.5673H161.843C165.149 73.529 165.469 73.4908 165.667 73.0619L165.789 72.7479L165.659 72.4799C165.492 72.1353 165.461 71.9132 161.059 71.3695C159.505 71.178 157.905 70.9866 157.09 70.8181L156.854 70.7722C156.214 70.6496 155.91 70.5884 154.92 69.432C154.676 68.9496 154.44 68.4671 154.196 67.9923C152.894 65.4499 151.545 62.8155 151.225 60.2194C151.005 58.4887 151.439 58.0292 151.979 57.4396C152.277 57.1179 152.612 56.758 152.817 56.1837C153.274 54.9048 156.481 50.5321 158.606 47.6297C159.124 46.9175 159.589 46.2819 159.962 45.7688L160.602 44.8804H159.909C167.526 44.5435 176.353 44.0917 176.353 44.0917C176.353 44.0917 183.209 43.7777 183.757 42.5754C183.757 42.5754 182.165 41.8249 178.197 41.8249C178.197 41.8249 180.649 40.8447 175.036 41.0285L167.465 41.3271C167.807 41.2659 168.104 41.1969 168.356 41.1204C169.864 41.0438 170.786 40.9978 170.786 40.9978C170.786 40.9978 177.641 40.6839 178.189 39.4816C178.189 39.4816 176.955 38.8995 173.977 38.7617C173.947 38.7158 173.87 38.6775 173.741 38.6392C174.792 38.5243 175.638 38.3865 175.988 38.241C175.988 38.241 177.679 38.2256 178.821 37.8351L179.248 36.8012C179.248 36.8012 184.321 36.4183 185.791 35.5836C185.791 35.5836 188.289 34.2971 185.075 34.6034C181.853 34.9174 173.391 35.3386 170.169 34.9863C170.169 34.9863 172.454 34.5421 174.426 34.5421C174.426 34.5421 177.595 34.3583 178.303 34.0061C179.012 33.6538 180.581 32.9876 179.987 32.6583C179.385 32.3366 176.338 32.329 174.251 32.2677C172.157 32.2064 166.573 32.4821 164.822 31.969L163.428 31.2722C163.428 31.2722 181.007 30.8739 182.973 30.8739C184.938 30.8739 185.532 30.1158 185.532 30.1158C185.532 30.1158 187.177 30.56 187.718 29.932C187.741 29.909 187.748 29.8861 187.764 29.8631C190.909 29.7099 193.278 29.6104 193.278 29.6104C193.659 28.9594 193.057 28.5612 193.057 28.5612L193.065 28.5765ZM129.517 15.5809C129.517 15.5809 133.09 15.2363 134.948 15.0985C136.807 14.9606 136.662 15.5579 136.662 15.5579L133.836 15.7953C134.666 15.7417 134.301 16.3237 134.301 16.3237L129.868 16.676C128.519 16.7679 129.098 16.408 129.098 16.408C128.146 16.4309 127.75 16.1629 127.75 16.1629C127.864 15.7264 129.502 15.5809 129.502 15.5809H129.517ZM138.223 27.9333L130.66 28.4693C128.367 28.6148 129.342 28.0558 129.342 28.0558C127.72 28.0864 127.042 27.6882 127.042 27.6882C127.24 27.022 130.035 26.7999 130.035 26.7999C130.035 26.7999 136.136 26.2638 139.313 26.0571C142.489 25.8503 142.237 26.7539 142.237 26.7539L137.408 27.1139C138.825 27.0373 138.208 27.9256 138.208 27.9256L138.223 27.9333ZM134.522 40.9213L139.358 40.7221C137.934 40.7528 138.589 39.8798 138.589 39.8798L146.168 39.5964C148.468 39.5275 147.47 40.0559 147.47 40.0559C149.093 40.0789 149.755 40.5001 149.755 40.5001C149.542 41.1587 146.731 41.2888 146.731 41.2888C146.731 41.2888 140.615 41.6181 137.431 41.7177C134.255 41.8172 134.529 40.9213 134.529 40.9213H134.522ZM145.627 43.502C145.627 43.502 147.447 43.0425 148.194 42.8894C148.369 42.8511 148.514 42.7821 148.643 42.6903C152.429 42.5141 155.224 42.3763 155.224 42.3763C155.224 42.3763 155.613 42.361 156.207 42.3227C156.077 42.7745 156.336 43.3259 158.408 43.2723L152.619 43.5173V43.479C151.385 43.0349 145.635 43.5097 145.635 43.5097L145.627 43.502ZM153.67 36.3647C153.175 36.2499 152.886 36.0891 152.962 35.8593C152.962 35.8593 154.341 35.5607 156.047 35.2314C158.446 35.3845 159.474 36.0584 159.474 36.0584L153.663 36.3647H153.67ZM154.044 26.662C150.997 27.0296 148.75 27.2823 147.333 27.558C145.916 27.8337 145.292 26.3634 147.798 26.103C150.304 25.835 156.664 24.9313 157.517 25.1994C158.362 25.4751 157.106 26.2945 154.051 26.662H154.044ZM147.295 48.4261C146.724 48.2959 145.269 47.7216 143.959 47.2161C143.532 47.0553 141.735 46.2742 140.12 45.5773C142.237 45.4165 145.231 45.5237 147.805 45.4931L147.79 45.8607C147.744 46.8409 147.562 47.6144 147.295 48.4338V48.4261ZM156.176 45.271C153.244 50.7158 151.781 52.4619 151.096 53.0132C149.694 51.5353 149.603 49.4752 149.702 47.645C149.717 47.4076 149.786 47.2544 149.877 47.04C149.999 46.772 150.144 46.4427 150.159 45.9449L150.174 45.4395L149.961 45.4165C150.441 45.3629 150.829 45.2787 151.149 45.1638C151.865 45.1791 152.688 45.1791 153.64 45.1408C154.455 45.1102 155.346 45.0796 156.291 45.0413L156.161 45.271H156.176ZM153.404 23.193C152.124 23.0781 151.37 22.4961 151.37 22.4961C151.37 22.4961 143.647 23.5452 143.129 23.4304C143.129 23.4304 142.23 22.6569 143.494 22.4119L146.754 21.7839C146.754 21.7839 145.269 20.9798 147.15 20.5433C147.15 20.5433 150.746 20.0685 152.68 20.1298C152.68 20.1298 154.485 20.7271 154.699 21.4163C154.699 21.4163 160.488 21.2478 160.198 22.1745C160.198 22.1745 154.699 23.3078 153.419 23.193H153.404ZM168.363 35.2237C170.435 35.0859 170.275 35.6832 170.275 35.6832L167.122 35.9206C168.051 35.867 167.64 36.449 167.64 36.449L162.704 36.8012C161.204 36.8931 161.843 36.5332 161.843 36.5332C160.785 36.5562 160.343 36.2882 160.343 36.2882C160.472 35.8517 162.3 35.7062 162.3 35.7062C162.3 35.7062 166.284 35.3615 168.356 35.2237H168.363Z" fill="#8FB430"></path></svg> 